<?xml version="1.0" encoding="utf-8"?>
<!-- Generator: Adobe Illustrator 23.0.1, SVG Export Plug-In . SVG Version: 6.00 Build 0)  -->
<svg version="1.1" xmlns="http://www.w3.org/2000/svg" xmlns:xlink="http://www.w3.org/1999/xlink" x="0px" y="0px"
	 viewBox="0 0 512 512" style="enable-background:new 0 0 512 512;" xml:space="preserve">
<style type="text/css">
	.st0{display:none;}
	.st1{display:inline;fill:#FF507A;}
	.st2{fill:#00E6FF;}
	.st3{display:none;fill:#FFFFFF;}
</style>
<g id="Layer_2" class="st0">
	<rect x="34" y="16" class="st1" width="436" height="475"/>
</g>
<g id="Layer_1">
	<g>
		<path class="st2" d="M250.2,39.2c-28.4,47.2-136.1,230.5-136.1,299.6c0,77.9,61,141.2,136.1,141.2c75,0,136.1-63.3,136.1-141.2
			C386.2,269.7,278.6,86.4,250.2,39.2z"/>
	</g>
	<path class="st3" d="M402.3,338.8c0-83.7-139.3-309.7-145.3-319.2c-1.6-2.2-4.1-3.5-6.8-3.5c-2.7,0-5.2,1.3-6.8,3.5
		c-5.9,9.6-145.3,235.5-145.3,319.2c0,86.7,68.2,157.2,152.1,157.2S402.3,425.5,402.3,338.8z M250.2,480
		c-75,0-136.1-63.3-136.1-141.2c0-69.1,107.7-252.4,136.1-299.6c28.4,47.2,136.1,230.5,136.1,299.6C386.2,416.7,325.2,480,250.2,480
		z"/>
</g>
</svg>
