<?xml version="1.0" encoding="utf-8"?>
<!-- Generator: Adobe Illustrator 23.0.0, SVG Export Plug-In . SVG Version: 6.00 Build 0)  -->
<svg version="1.1" id="Layer_1" xmlns="http://www.w3.org/2000/svg" xmlns:xlink="http://www.w3.org/1999/xlink" x="0px" y="0px"
	 viewBox="0 0 515.6 205.6" style="enable-background:new 0 0 515.6 205.6;" xml:space="preserve">
<style type="text/css">
	.st0{fill:#BEDA71;}
	.st1{fill:#F5F5F5;}
	.st2{fill:#00DAF2;}
</style>
<g>
	<path class="st0" d="M362.2,56.1c0,31-14.3,56.1-26,56.1S312,86.5,312,55.6S333.8-0.2,336.1,0C339.7,0.3,362.2,25.1,362.2,56.1z"/>
	<path class="st0" d="M321.5,70.9c9.7,16.9,9.8,35.2,3.4,38.8c-6.4,3.7-21.3-6.4-31.1-23.4s-5.5-37.3-4.2-38
		C291.7,47.4,311.8,53.9,321.5,70.9z"/>
</g>
<g>
	<path class="st1" d="M123.7,176.8c0,5.8-1.2,10.6-3.5,14.3s-5.3,6.6-9.1,8.6c-3.7,2-8,3.5-12.9,4.2c-4.9,0.8-9.8,1.2-14.8,1.2H6.3
		c-4.2,0-6.3-2.1-6.3-6.4v-86.3c0-4.2,2.1-6.3,6.3-6.3h76c5.9,0,11.3,0.4,16.2,1.2c4.9,0.8,9.1,2.3,12.7,4.4c3.5,2.1,6.3,5,8.3,8.7
		c2,3.6,2.9,8.3,2.9,14.1c0,4.8-0.9,9-2.7,12.6c-1.8,3.5-5.1,6.5-9.9,8.9c4.2,1.5,7.5,3.9,10,7C122.4,166,123.7,170.7,123.7,176.8z
		 M105.1,177.3c0-2.6-0.3-4.9-0.8-6.7s-1.6-3.3-3.3-4.5c-1.6-1.2-3.9-2-6.9-2.5s-6.8-0.8-11.5-0.8H18.2v27.4h66.3
		c4.5,0,8.1-0.2,10.8-0.8c2.7-0.5,4.8-1.3,6.3-2.3s2.4-2.4,2.9-4C104.9,181.5,105.1,179.6,105.1,177.3z M18.6,148h65
		c4.1,0,7.5-0.2,10.2-0.5c2.7-0.4,4.9-1,6.6-2s2.9-2.3,3.5-4.1c0.7-1.8,1-4.1,1-7c0-2.4-0.3-4.4-0.8-6.1c-0.5-1.7-1.6-3.1-3.1-4.2
		s-3.6-1.9-6.3-2.4c-2.7-0.5-6.2-0.8-10.5-0.8H18.6V148z"/>
	<path class="st1" d="M173.2,205c-26.9,0-40.4-8.5-40.4-25.4v-67.7c0-2.6,0.8-4.4,2.3-5.2c1.5-0.8,3.8-1.2,6.7-1.2
		c3,0,5.3,0.4,6.8,1.2c1.5,0.8,2.3,2.5,2.3,5.2v67.7c0,2.9,1.8,5.4,5.4,7.5c3.6,2.1,9.4,3.1,17.4,3.1h40.9c8,0,13.8-1,17.4-3.1
		c3.6-2.1,5.4-4.6,5.4-7.5v-67.7c0-2.6,0.8-4.4,2.3-5.2c1.5-0.8,3.8-1.2,6.8-1.2c2.9,0,5.1,0.4,6.7,1.2c1.5,0.8,2.3,2.5,2.3,5.2
		v67.7c0,16.9-13.5,25.4-40.4,25.4H173.2z"/>
	<path class="st1" d="M392,179.6c0,16.9-13.5,25.4-40.4,25.4h-77.4c-4.2,0-6.3-2.1-6.3-6.4v-86.3c0-4.2,2.1-6.3,6.3-6.3h77.4
		c26.9,0,40.4,8.5,40.4,25.4V179.6z M286.1,190.3h65c8,0,13.9-1,17.5-3.1c3.7-2.1,5.5-4.6,5.5-7.5v-48.2c0-3-1.8-5.5-5.5-7.6
		c-3.7-2-9.5-3.1-17.5-3.1h-65V190.3z"/>
	<path class="st1" d="M396.1,116.4c-1.9-1.7-2.9-3.5-2.9-5.5c0-1.5,0.8-2.7,2.3-3.8c1.5-1.1,4-1.6,7.5-1.6c2,0,3.5,0.2,4.6,0.6
		c1,0.4,2.1,1.1,3.1,2l43.8,42.6l43.7-42.6c0.9-0.9,1.9-1.6,3-2s2.6-0.6,4.6-0.6c3.5,0,6,0.5,7.5,1.6c1.5,1,2.3,2.3,2.3,3.9
		c0,1.9-1,3.7-2.9,5.5l-49.3,47.6v35.1c0,2.6-0.8,4.4-2.3,5.2s-3.8,1.2-6.8,1.2c-2.9,0-5.1-0.4-6.7-1.2c-1.5-0.8-2.3-2.5-2.3-5.2
		v-35.1L396.1,116.4z"/>
</g>
<g>
	<path class="st2" d="M350.9,165.8h-8.1c-4.4,0-8.1-3.4-8.1-7.8v-8.1c0-4.4,3.6-8.1,8.1-8.1h8.1c4.4,0,8.1,3.6,8.1,8.1v8.1
		C359,162.4,355.4,165.8,350.9,165.8z"/>
	<path class="st2" d="M320.6,165.8h-8.1c-4.4,0-8.1-3.4-8.1-7.8v-8.1c0-4.4,3.6-8.1,8.1-8.1h8.1c4.4,0,8.1,3.6,8.1,8.1v8.1
		C328.6,162.4,325,165.8,320.6,165.8z"/>
</g>
</svg>
