<?xml version="1.0" encoding="utf-8"?>
<!-- Generator: Adobe Illustrator 23.0.1, SVG Export Plug-In . SVG Version: 6.00 Build 0)  -->
<svg version="1.1" xmlns="http://www.w3.org/2000/svg" xmlns:xlink="http://www.w3.org/1999/xlink" x="0px" y="0px"
	 viewBox="0 0 512 512" style="enable-background:new 0 0 512 512;" xml:space="preserve">
<style type="text/css">
	.st0{display:none;}
	.st1{display:inline;stroke:#FFFFFF;stroke-width:1.0723;stroke-miterlimit:10;}
	.st2{fill:#FFF600;}
	.st3{display:inline;fill:#FFFFFF;}
	.st4{display:inline;}
	.st5{fill:#FFFFFF;}
</style>
<g id="Layer_2" class="st0">
	<rect x="0" class="st1" width="512" height="512"/>
</g>
<g id="Capa_1">
	<g>
		<path class="st2" d="M256,133.1c-67.7,0-122.9,55.1-122.9,122.9c0,67.7,55.1,122.9,122.9,122.9S378.9,323.7,378.9,256
			C378.9,188.2,323.7,133.1,256,133.1z"/>
	</g>
	<g>
		<g>
			<path class="st2" d="M256,73.2c-4.1,0-7.3-3.3-7.3-7.3V7.3c0-4.1,3.3-7.3,7.3-7.3c4.1,0,7.3,3.3,7.3,7.3v58.5
				C263.3,69.9,260.1,73.2,256,73.2z"/>
			<path class="st2" d="M256,512c-4.1,0-7.3-3.3-7.3-7.3v-58.5c0-4.1,3.3-7.3,7.3-7.3c4.1,0,7.3,3.3,7.3,7.3v58.5
				C263.3,508.7,260.1,512,256,512z"/>
		</g>
		<g>
			<path class="st2" d="M65.8,263.3H7.3c-4.1,0-7.3-3.3-7.3-7.3s3.3-7.3,7.3-7.3h58.5c4.1,0,7.3,3.3,7.3,7.3S69.9,263.3,65.8,263.3z
				"/>
			<path class="st2" d="M504.6,263.3h-58.5c-4.1,0-7.3-3.3-7.3-7.3s3.3-7.3,7.3-7.3h58.5c4.1,0,7.3,3.3,7.3,7.3
				S508.7,263.3,504.6,263.3z"/>
		</g>
		<g>
			<path class="st2" d="M121.6,128.9c-1.9,0-3.8-0.7-5.2-2.1L75,85.4c-2.9-2.9-2.9-7.5,0-10.4s7.5-2.9,10.4,0l41.4,41.3
				c2.9,2.9,2.9,7.5,0,10.4C125.3,128.2,123.4,128.9,121.6,128.9z"/>
			<path class="st2" d="M431.8,439.2c-1.9,0-3.8-0.7-5.2-2.1l-41.4-41.4c-2.9-2.9-2.9-7.5,0-10.4s7.5-2.9,10.4,0l41.4,41.4
				c2.9,2.9,2.9,7.5,0,10.4C435.6,438.5,433.7,439.2,431.8,439.2z"/>
		</g>
		<g>
			<path class="st2" d="M80.2,439.2c-1.9,0-3.8-0.7-5.2-2.1c-2.9-2.9-2.9-7.5,0-10.4l41.4-41.4c2.9-2.9,7.5-2.9,10.4,0
				c2.9,2.9,2.9,7.5,0,10.4L85.4,437C83.9,438.5,82.1,439.2,80.2,439.2z"/>
			<path class="st2" d="M390.5,128.9c-1.9,0-3.8-0.7-5.2-2.1c-2.9-2.9-2.9-7.5,0-10.4L426.6,75c2.9-2.9,7.5-2.9,10.4,0
				s2.9,7.5,0,10.4l-41.4,41.3C394.2,128.2,392.3,128.9,390.5,128.9z"/>
		</g>
	</g>
	<g class="st0">
		<path class="st3" d="M256,393.6c-75.9,0-137.6-61.7-137.6-137.6c0-75.9,61.7-137.6,137.6-137.6S393.5,180.1,393.5,256
			C393.6,331.9,331.8,393.6,256,393.6z M256,133.1c-67.7,0-122.9,55.1-122.9,122.9c0,67.7,55.1,122.9,122.9,122.9
			S378.9,323.7,378.9,256C378.9,188.2,323.7,133.1,256,133.1z"/>
		<g class="st4">
			<path class="st5" d="M256,73.2c-4.1,0-7.3-3.3-7.3-7.3V7.3c0-4.1,3.3-7.3,7.3-7.3c4.1,0,7.3,3.3,7.3,7.3v58.5
				C263.3,69.9,260.1,73.2,256,73.2z"/>
			<path class="st5" d="M256,512c-4.1,0-7.3-3.3-7.3-7.3v-58.5c0-4.1,3.3-7.3,7.3-7.3c4.1,0,7.3,3.3,7.3,7.3v58.5
				C263.3,508.7,260.1,512,256,512z"/>
		</g>
		<g class="st4">
			<path class="st5" d="M65.8,263.3H7.3c-4.1,0-7.3-3.3-7.3-7.3s3.3-7.3,7.3-7.3h58.5c4.1,0,7.3,3.3,7.3,7.3S69.9,263.3,65.8,263.3z
				"/>
			<path class="st5" d="M504.6,263.3h-58.5c-4.1,0-7.3-3.3-7.3-7.3s3.3-7.3,7.3-7.3h58.5c4.1,0,7.3,3.3,7.3,7.3
				S508.7,263.3,504.6,263.3z"/>
		</g>
		<g class="st4">
			<path class="st5" d="M121.6,128.9c-1.9,0-3.8-0.7-5.2-2.1L75,85.4c-2.9-2.9-2.9-7.5,0-10.4s7.5-2.9,10.4,0l41.4,41.3
				c2.9,2.9,2.9,7.5,0,10.4C125.3,128.2,123.4,128.9,121.6,128.9z"/>
			<path class="st5" d="M431.8,439.2c-1.9,0-3.8-0.7-5.2-2.1l-41.4-41.4c-2.9-2.9-2.9-7.5,0-10.4s7.5-2.9,10.4,0l41.4,41.4
				c2.9,2.9,2.9,7.5,0,10.4C435.6,438.5,433.7,439.2,431.8,439.2z"/>
		</g>
		<g class="st4">
			<path class="st5" d="M80.2,439.2c-1.9,0-3.8-0.7-5.2-2.1c-2.9-2.9-2.9-7.5,0-10.4l41.4-41.4c2.9-2.9,7.5-2.9,10.4,0
				c2.9,2.9,2.9,7.5,0,10.4L85.4,437C83.9,438.5,82.1,439.2,80.2,439.2z"/>
			<path class="st5" d="M390.5,128.9c-1.9,0-3.8-0.7-5.2-2.1c-2.9-2.9-2.9-7.5,0-10.4L426.6,75c2.9-2.9,7.5-2.9,10.4,0
				s2.9,7.5,0,10.4l-41.4,41.3C394.2,128.2,392.3,128.9,390.5,128.9z"/>
		</g>
	</g>
</g>
</svg>
