<?xml version="1.0" encoding="utf-8"?>
<!-- Generator: Adobe Illustrator 23.0.1, SVG Export Plug-In . SVG Version: 6.00 Build 0)  -->
<svg version="1.1" xmlns="http://www.w3.org/2000/svg" xmlns:xlink="http://www.w3.org/1999/xlink" x="0px" y="0px"
	 viewBox="0 0 512 512" style="enable-background:new 0 0 512 512;" xml:space="preserve">
<style type="text/css">
	.st0{display:none;}
	.st1{display:inline;}
	.st2{fill:#B21C05;}
	.st3{display:none;fill:#FFFFFF;}
</style>
<g id="Layer_2" class="st0">
	<rect class="st1" width="512" height="512"/>
</g>
<g id="Layer_1">
	<g>
		<path class="st2" d="M213.9,324.4v25.7c0,2.7-1.3,5.2-3.4,6.8c-19.4,14.5-30.8,37.3-30.7,61.6c0.1,42.4,34.5,76.8,76.9,76.7
			c42.4-0.1,76.8-34.5,76.7-76.9c0.1-24.2-11.3-46.9-30.7-61.3c-2.1-1.6-3.4-4.1-3.4-6.8V59.8c0-23.6-19.1-42.7-42.7-42.7
			c-23.6,0-42.7,19.1-42.7,42.7v34.1H231V111h-17.1v25.6H231v17.1h-17.1v25.6H231v17.1h-17.1V222H231V239h-17.1v25.6H231v17.1h-17.1
			v25.6H231v17.1H213.9z"/>
	</g>
	<path class="st3" d="M256.6,0c-33,0-59.7,26.8-59.8,59.8V346c-25.4,20.7-38,53.2-33.2,85.6c7.2,51.4,54.8,87.1,106.1,79.9
		c46.4-6.6,80.9-46.3,80.8-93.2c0.1-28-12.5-54.6-34.1-72.3V59.8C316.3,26.8,289.6,0,256.6,0z M333.4,418.3
		c0.1,42.4-34.3,76.9-76.7,76.9c-42.4,0.1-76.9-34.3-76.9-76.7c0-24.2,11.4-47,30.7-61.6c2.1-1.6,3.4-4.1,3.4-6.8v-25.7H231v-17.1
		h-17.1v-25.6H231v-17.1h-17.1V239H231V222h-17.1v-25.6H231v-17.1h-17.1v-25.6H231v-17.1h-17.1V111H231V93.9h-17.1V59.8
		c0-23.6,19.1-42.7,42.7-42.7c23.6,0,42.7,19.1,42.7,42.7v290.4c0,2.7,1.3,5.2,3.4,6.8C322.1,371.4,333.5,394.1,333.4,418.3z"/>
	<path class="st3" d="M265.1,376.5V76.8H248v299.6c-23.1,4.7-38,27.3-33.3,50.4c4.7,23.1,27.3,38,50.4,33.3s38-27.3,33.3-50.4
		C295,393,281.9,379.9,265.1,376.5z M256.6,443.9c-14.1,0-25.6-11.5-25.6-25.6c0-14.1,11.5-25.6,25.6-25.6
		c14.1,0,25.6,11.5,25.6,25.6C282.2,432.4,270.7,443.9,256.6,443.9z"/>
</g>
</svg>
